<?xml version="1.0" standalone="no"?>
<!DOCTYPE svg PUBLIC "-//W3C//DTD SVG 20010904//EN"
 "http://www.w3.org/TR/2001/REC-SVG-20010904/DTD/svg10.dtd">
<svg version="1.0" xmlns="http://www.w3.org/2000/svg"
 width="100.000000pt" height="100.000000pt" viewBox="0 0 100.000000 100.000000"
 preserveAspectRatio="xMidYMid meet">

<g transform="translate(0.000000,100.000000) scale(0.100000,-0.100000)"
fill="#000000" stroke="none">
<path d="M230 815 c-6 -8 -17 -48 -22 -89 l-11 -75 -41 -3 c-40 -3 -41 -4 -41
-38 0 -31 3 -35 28 -38 31 -4 32 -7 12 -42 -8 -15 -14 -53 -15 -92 0 -37 -4
-70 -10 -73 -13 -8 -13 -78 -1 -91 6 -5 11 -29 13 -54 l3 -45 50 0 50 0 3 42
3 43 249 0 249 0 3 -42 3 -43 50 0 50 0 3 45 c2 25 7 49 13 55 12 12 12 82 -1
90 -5 3 -10 36 -10 73 -1 39 -7 77 -15 92 -20 35 -19 38 13 42 24 3 27 7 27
38 0 34 -1 35 -41 38 l-41 3 -11 75 c-5 41 -16 81 -22 89 -18 22 -522 22 -540
0z m528 -22 c5 -10 13 -45 16 -78 4 -33 10 -70 13 -82 4 -20 1 -23 -23 -23
-21 1 -34 9 -49 33 -39 61 -111 61 -150 0 l-20 -32 -169 -1 -168 0 5 23 c3 12
9 49 13 82 11 103 -10 95 274 95 227 0 250 -2 258 -17z m-71 -145 c13 -12 23
-25 23 -30 0 -4 -31 -8 -70 -8 -38 0 -70 3 -70 7 0 4 10 17 22 30 27 29 65 29
95 1z m-497 -38 c0 -16 -7 -20 -30 -20 -23 0 -30 4 -30 20 0 16 7 20 30 20 23
0 30 -4 30 -20z m680 0 c0 -16 -7 -20 -30 -20 -23 0 -30 4 -30 20 0 16 7 20
30 20 23 0 30 -4 30 -20z m-52 -65 l21 -44 -62 -3 -62 -3 0 -40 0 -40 63 -3
c54 -3 62 -6 62 -22 0 -19 -9 -20 -340 -20 -331 0 -340 1 -340 20 0 16 8 19
63 22 l62 3 0 40 0 40 -62 3 -62 3 21 44 22 45 296 0 296 0 22 -45z m-618 -90
c0 -28 -4 -35 -20 -35 -16 0 -20 7 -20 35 0 28 4 35 20 35 16 0 20 -7 20 -35z
m80 0 c0 -33 -2 -35 -35 -35 -33 0 -35 2 -35 35 0 33 2 35 35 35 33 0 35 -2
35 -35z m510 0 c0 -33 -2 -35 -35 -35 -33 0 -35 2 -35 35 0 33 2 35 35 35 33
0 35 -2 35 -35z m50 0 c0 -28 -4 -35 -20 -35 -16 0 -20 7 -20 35 0 28 4 35 20
35 16 0 20 -7 20 -35z m20 -140 l0 -35 -360 0 -360 0 0 35 0 35 360 0 360 0 0
-35z m-630 -90 c0 -33 -2 -35 -35 -35 -33 0 -35 2 -35 35 0 33 2 35 35 35 33
0 35 -2 35 -35z m610 0 c0 -33 -2 -35 -35 -35 -33 0 -35 2 -35 35 0 33 2 35
35 35 33 0 35 -2 35 -35z"/>
<path d="M455 770 c-12 -19 10 -32 51 -28 27 2 39 8 39 18 0 19 -79 27 -90 10z
m85 -10 c0 -5 -18 -10 -40 -10 -22 0 -40 5 -40 10 0 6 18 10 40 10 22 0 40 -4
40 -10z"/>
<path d="M342 488 c-18 -18 -14 -56 7 -68 11 -5 80 -10 155 -10 109 0 138 3
150 16 19 18 20 28 6 55 -10 17 -23 19 -158 19 -102 0 -152 -4 -160 -12z m48
-33 c0 -19 -4 -35 -10 -35 -5 0 -10 16 -10 35 0 19 5 35 10 35 6 0 10 -16 10
-35z m30 0 c0 -19 -4 -35 -10 -35 -5 0 -10 16 -10 35 0 19 5 35 10 35 6 0 10
-16 10 -35z m31 13 l2 -23 4 23 c7 35 23 26 23 -13 0 -32 -19 -52 -21 -22 0
10 -2 10 -6 0 -10 -25 -23 -12 -23 22 0 38 19 49 21 13z m60 10 c0 -10 2 -10
6 0 10 24 23 11 23 -23 0 -38 -19 -49 -21 -12 l-2 22 -4 -22 c-7 -36 -23 -27
-23 12 0 32 19 52 21 23z m59 -23 c0 -19 -4 -35 -10 -35 -5 0 -10 16 -10 35 0
19 5 35 10 35 6 0 10 -16 10 -35z m30 0 c0 -19 -4 -35 -10 -35 -5 0 -10 16
-10 35 0 19 5 35 10 35 6 0 10 -16 10 -35z m31 3 l1 -33 8 30 c6 25 8 27 15
12 8 -19 -10 -47 -31 -47 -9 0 -14 12 -14 35 0 44 20 46 21 3z m-271 -5 c0
-20 -3 -24 -11 -16 -7 7 -9 19 -6 27 10 24 17 19 17 -11z"/>
<path d="M277 303 c73 -2 193 -2 265 0 73 1 14 3 -132 3 -146 0 -205 -2 -133
-3z"/>
<path d="M728 303 c12 -2 32 -2 45 0 12 2 2 4 -23 4 -25 0 -35 -2 -22 -4z"/>
</g>
</svg>
