<?xml version="1.0" standalone="no"?>
<!DOCTYPE svg PUBLIC "-//W3C//DTD SVG 20010904//EN"
 "http://www.w3.org/TR/2001/REC-SVG-20010904/DTD/svg10.dtd">
<svg version="1.0" xmlns="http://www.w3.org/2000/svg"
 width="100.000000pt" height="100.000000pt" viewBox="0 0 100.000000 100.000000"
 preserveAspectRatio="xMidYMid meet">

<g transform="translate(0.000000,100.000000) scale(0.100000,-0.100000)"
fill="#000000" stroke="none">
<path d="M615 874 c-142 -34 -296 -41 -382 -18 -32 9 -42 -20 -52 -148 -5 -62
-21 -158 -35 -213 -14 -55 -26 -116 -26 -135 0 -26 -9 -43 -37 -72 l-37 -38
114 -115 c63 -63 119 -115 125 -115 5 0 46 36 90 79 50 50 93 83 115 90 19 5
60 19 90 30 67 25 133 26 218 5 45 -11 67 -13 74 -6 6 6 16 54 21 106 10 84 8
107 -13 211 -18 93 -21 133 -16 194 4 42 8 87 9 100 2 19 -4 26 -28 32 -37 11
-203 20 -230 13z m205 -49 c5 -3 6 -43 3 -88 -4 -63 0 -112 17 -204 18 -96 21
-138 15 -198 l-7 -77 -31 6 c-94 19 -182 18 -240 -2 l-58 -19 81 82 c84 87 97
117 64 150 -15 15 -15 17 0 34 22 25 20 68 -4 83 -11 7 -20 21 -20 30 0 24
-37 60 -58 56 -9 -2 -25 7 -35 19 -31 39 -54 29 -158 -74 -95 -92 -99 -95 -99
-67 0 37 -25 74 -51 74 -16 0 -19 7 -19 53 0 28 3 69 6 89 l7 37 106 -5 c85
-5 125 -2 201 15 71 15 117 19 183 16 49 -3 93 -7 97 -10z m-297 -159 c3 -8
-25 -44 -69 -87 -41 -40 -74 -77 -74 -82 0 -4 7 -10 16 -14 11 -4 42 20 100
78 66 66 86 81 96 71 10 -10 -4 -29 -67 -92 -68 -69 -77 -81 -65 -95 12 -14
21 -8 86 56 65 65 94 79 94 46 0 -6 -35 -46 -77 -89 -60 -60 -75 -80 -65 -90
9 -9 24 1 67 41 51 48 75 57 75 28 0 -7 -80 -92 -178 -190 l-177 -177 -93 93
-92 93 30 29 c23 22 30 38 31 69 0 23 10 84 22 136 19 81 25 95 42 95 18 0 20
-6 17 -66 -2 -37 0 -69 5 -72 5 -3 63 48 129 114 65 65 124 119 130 119 7 0
14 -6 17 -14z"/>
</g>
</svg>
