<?xml version="1.0" standalone="no"?>
<!DOCTYPE svg PUBLIC "-//W3C//DTD SVG 20010904//EN"
 "http://www.w3.org/TR/2001/REC-SVG-20010904/DTD/svg10.dtd">
<svg version="1.0" xmlns="http://www.w3.org/2000/svg"
 width="50.000000pt" height="50.000000pt" viewBox="0 0 50.000000 50.000000"
 preserveAspectRatio="xMidYMid meet">

<g transform="translate(0.000000,50.000000) scale(0.100000,-0.100000)"
fill="#000000" stroke="none">
<path d="M132 468 c-16 -16 -15 -48 2 -48 7 0 19 -7 26 -15 10 -12 8 -24 -9
-65 -22 -50 -51 -212 -51 -282 l0 -38 147 0 146 0 -6 98 c-8 120 -14 142 -38
142 -35 0 -59 36 -59 88 l1 47 15 -27 c20 -38 74 -65 74 -38 0 6 -7 10 -15 10
-14 0 -55 54 -55 73 0 4 16 7 35 7 32 0 35 2 35 30 l0 30 -118 0 c-78 0 -122
-4 -130 -12z m228 -18 c0 -5 -11 -10 -25 -10 -15 0 -36 -11 -49 -25 -33 -35
-79 -34 -116 4 -16 16 -26 31 -23 35 11 10 213 7 213 -4z m-90 -116 c0 -47 13
-69 49 -84 37 -15 40 -22 47 -126 l7 -84 -127 0 -126 0 0 24 c0 51 22 181 41
242 l20 64 44 0 c45 0 45 0 45 -36z"/>
<path d="M212 200 c-27 -12 -47 -52 -37 -77 4 -10 7 -28 6 -40 -3 -34 16 -28
22 6 7 34 61 100 73 89 4 -4 -5 -20 -19 -34 -15 -15 -27 -35 -27 -45 0 -24 32
-25 53 -1 17 18 38 97 29 107 -8 8 -74 5 -100 -5z"/>
</g>
</svg>
