<?xml version="1.0" standalone="no"?>
<!DOCTYPE svg PUBLIC "-//W3C//DTD SVG 20010904//EN"
 "http://www.w3.org/TR/2001/REC-SVG-20010904/DTD/svg10.dtd">
<svg version="1.0" xmlns="http://www.w3.org/2000/svg"
 width="100.000000pt" height="100.000000pt" viewBox="0 0 100.000000 100.000000"
 preserveAspectRatio="xMidYMid meet">

<g transform="translate(0.000000,100.000000) scale(0.100000,-0.100000)"
fill="#000000" stroke="none">
<path d="M180 500 l0 -320 320 0 320 0 0 320 0 320 -320 0 -320 0 0 -320z
m620 0 l0 -300 -300 0 -300 0 0 300 0 300 300 0 300 0 0 -300z"/>
<path d="M222 663 l2 -118 3 112 4 113 167 3 167 3 -172 2 -173 2 2 -117z"/>
<path d="M771 724 c0 -11 3 -14 6 -6 3 7 2 16 -1 19 -3 4 -6 -2 -5 -13z"/>
<path d="M280 670 l0 -40 220 0 220 0 0 40 0 40 -220 0 -220 0 0 -40z m430 0
l0 -30 -210 0 -210 0 0 30 0 30 210 0 210 0 0 -30z"/>
<path d="M772 670 c0 -14 2 -19 5 -12 2 6 2 18 0 25 -3 6 -5 1 -5 -13z"/>
<path d="M774 440 c0 -107 2 -151 3 -97 2 53 2 141 0 195 -1 53 -3 9 -3 -98z"/>
<path d="M280 570 l0 -30 175 0 175 0 0 30 0 30 -175 0 -175 0 0 -30z m340 0
c0 -19 -7 -20 -165 -20 -158 0 -165 1 -165 20 0 19 7 20 165 20 158 0 165 -1
165 -20z"/>
<path d="M222 500 c0 -19 2 -27 5 -17 2 9 2 25 0 35 -3 9 -5 1 -5 -18z"/>
<path d="M280 380 l0 -90 90 0 90 0 0 90 0 90 -90 0 -90 0 0 -90z m170 0 l0
-80 -80 0 -80 0 0 80 0 80 80 0 80 0 0 -80z"/>
<path d="M340 380 c0 -27 3 -30 30 -30 27 0 30 3 30 30 0 27 -3 30 -30 30 -27
0 -30 -3 -30 -30z m50 0 c0 -13 -7 -20 -20 -20 -13 0 -20 7 -20 20 0 13 7 20
20 20 13 0 20 -7 20 -20z"/>
<path d="M568 463 c28 -2 76 -2 105 0 28 2 5 3 -53 3 -58 0 -81 -1 -52 -3z"/>
<path d="M608 403 c23 -2 59 -2 80 0 20 2 1 4 -43 4 -44 0 -61 -2 -37 -4z"/>
<path d="M643 343 c15 -2 39 -2 55 0 15 2 2 4 -28 4 -30 0 -43 -2 -27 -4z"/>
<path d="M222 263 l-2 -43 233 2 232 3 -227 2 -227 3 -4 38 -4 37 -1 -42z"/>
</g>
</svg>
