<?xml version="1.0" standalone="no"?>
<!DOCTYPE svg PUBLIC "-//W3C//DTD SVG 20010904//EN"
 "http://www.w3.org/TR/2001/REC-SVG-20010904/DTD/svg10.dtd">
<svg version="1.0" xmlns="http://www.w3.org/2000/svg"
 width="64.000000pt" height="64.000000pt" viewBox="0 0 64.000000 64.000000"
 preserveAspectRatio="xMidYMid meet">

<g transform="translate(0.000000,64.000000) scale(0.100000,-0.100000)"
fill="#000000" stroke="none">
<path d="M29 429 c-19 -19 -21 -30 -17 -103 7 -136 69 -232 183 -287 112 -54
235 -33 334 56 60 55 93 132 99 231 4 73 2 84 -17 103 -42 42 -73 19 -98 -70
-16 -60 -17 -60 -47 -52 -40 10 -252 10 -292 0 -31 -8 -32 -7 -39 30 -4 20
-14 51 -22 68 -26 51 -50 58 -84 24z m68 -54 c17 -45 20 -158 6 -194 l-10 -25
-16 25 c-18 26 -47 130 -47 165 0 13 5 35 10 49 14 37 40 28 57 -20z m507 3
c7 -27 5 -55 -7 -104 -16 -63 -43 -121 -53 -112 -2 3 -8 28 -14 56 -10 52 -2
118 19 175 15 40 43 32 55 -15z m-141 -98 c30 -9 37 -16 37 -36 0 -14 5 -45
11 -70 11 -41 10 -47 -11 -69 -85 -91 -275 -91 -360 0 -21 22 -22 28 -11 69 6
25 11 56 11 70 0 26 14 33 100 50 37 7 179 -2 223 -14z"/>
</g>
</svg>
