<?xml version="1.0" standalone="no"?>
<!DOCTYPE svg PUBLIC "-//W3C//DTD SVG 20010904//EN"
 "http://www.w3.org/TR/2001/REC-SVG-20010904/DTD/svg10.dtd">
<svg version="1.0" xmlns="http://www.w3.org/2000/svg"
 width="64.000000pt" height="64.000000pt" viewBox="0 0 64.000000 64.000000"
 preserveAspectRatio="xMidYMid meet">

<g transform="translate(0.000000,64.000000) scale(0.100000,-0.100000)"
fill="#000000" stroke="none">
<path d="M298 483 c-82 -81 -141 -148 -144 -163 -22 -104 -46 -161 -89 -208
-47 -52 -53 -70 -33 -90 20 -20 38 -14 81 24 47 43 124 79 187 89 41 6 57 19
188 149 175 174 175 176 79 273 -96 95 -98 95 -269 -74z m254 60 c61 -60 74
-97 43 -123 -22 -18 -64 21 -58 54 6 30 -23 59 -53 53 -33 -6 -72 36 -54 58
25 30 62 18 122 -42z m-126 -14 c10 -12 18 -31 16 -43 -4 -28 31 -60 57 -53
13 3 28 -5 45 -22 l26 -27 -115 -113 c-81 -79 -120 -111 -131 -107 -9 4 -22 3
-28 -2 -6 -5 -31 -14 -56 -21 -25 -7 -62 -24 -84 -38 -33 -22 -40 -23 -53 -10
-13 12 -11 19 11 52 14 21 31 56 36 79 6 22 15 49 21 59 5 10 7 23 3 28 -6 10
212 239 227 239 3 0 14 -9 25 -21z m92 -47 c4 -28 -24 -40 -45 -19 -14 13 -14
19 -3 32 18 22 44 15 48 -13z m-437 -436 c-16 -16 -23 -18 -33 -8 -18 18 19
57 39 40 12 -10 11 -15 -6 -32z"/>
<path d="M315 420 l-60 -60 58 -57 57 -58 60 60 c33 33 60 64 60 70 0 13 -92
105 -106 105 -5 0 -36 -27 -69 -60z m105 -95 l-50 -50 -42 43 -42 42 49 50 49
50 43 -42 43 -42 -50 -51z"/>
<path d="M262 303 c21 -20 40 -34 44 -30 8 8 -50 67 -68 67 -7 0 4 -17 24 -37z"/>
<path d="M191 266 c-7 -8 -8 -17 -3 -20 6 -3 15 1 21 8 7 8 8 17 3 20 -6 3
-15 -1 -21 -8z"/>
<path d="M320 251 c0 -5 7 -14 15 -21 12 -10 15 -10 15 3 0 8 -7 17 -15 21 -8
3 -15 2 -15 -3z"/>
<path d="M225 229 c-4 -6 -5 -13 -2 -16 7 -7 27 6 27 18 0 12 -17 12 -25 -2z"/>
<path d="M264 195 c-9 -22 1 -29 15 -11 8 10 9 16 1 21 -5 3 -13 -1 -16 -10z"/>
</g>
</svg>
